HIERARCHY
ROOT Spine
{
    OFFSET 0.0 0.0 -0.0
    CHANNELS 6 Xposition Yposition Zposition Zrotation Xrotation Yrotation
    JOINT ShoulderCenter
    {
        OFFSET 0.0 0.22900515794754028 0.0
        CHANNELS 3 Zrotation Xrotation Yrotation
        JOINT LeftShoulder
        {
            OFFSET 0.1751856803894043 0.0 0.0
            CHANNELS 3 Zrotation Xrotation Yrotation
            JOINT LeftElbow
            {
                OFFSET 0.2634306252002716 0.0 0.0
                CHANNELS 3 Zrotation Xrotation Yrotation
                JOINT LeftHand
                {
                    OFFSET 0.34314629435539246 0.0 0.0
                    CHANNELS 3 Zrotation Xrotation Yrotation
                    End Site
                    {
                        OFFSET 0.13725851476192474 0.0 0.0
                    }
                }
            }
        }
        JOINT RightShoulder
        {
            OFFSET -0.1751856803894043 0.0 0.0
            CHANNELS 3 Zrotation Xrotation Yrotation
            JOINT RightElbow
            {
                OFFSET -0.2634306252002716 0.0 0.0
                CHANNELS 3 Zrotation Xrotation Yrotation
                JOINT RightHand
                {
                    OFFSET -0.34314629435539246 0.0 0.0
                    CHANNELS 3 Zrotation Xrotation Yrotation
                    End Site
                    {
                        OFFSET -0.13725851476192474 0.0 0.0
                    }
                }
            }
        }
        End Site
        {
            OFFSET 0.0 0.09160206466913223 0.0
        }
    }
    JOINT LeftHip
    {
        OFFSET 0.2187997585134544 -0.2187997585134544 0.0
        CHANNELS 3 Zrotation Xrotation Yrotation
        JOINT LeftKnee
        {
            OFFSET 0.0 -0.34306859970092773 0.0
            CHANNELS 3 Zrotation Xrotation Yrotation
            JOINT LeftFoot
            {
                OFFSET 0.0 -0.47206035256385803 0.0
                CHANNELS 3 Zrotation Xrotation Yrotation
                End Site
                {
                    OFFSET 0.0 0.0 0.1888241469860077
                }
            }
        }
    }
    JOINT RightHip
    {
        OFFSET -0.2187997585134544 -0.2187997585134544 0.0
        CHANNELS 3 Zrotation Xrotation Yrotation
        JOINT RightKnee
        {
            OFFSET 0.0 -0.34306859970092773 0.0
            CHANNELS 3 Zrotation Xrotation Yrotation
            JOINT RightFoot
            {
                OFFSET 0.0 -0.47206035256385803 0.0
                CHANNELS 3 Zrotation Xrotation Yrotation
                End Site
                {
                    OFFSET 0.0 0.0 0.1888241469860077
                }
            }
        }
    }
}
MOTION
Frames: 5
Frame Time: 0.03333333333333333
-0.3302899897098541 0.31189170479774475 3.458393096923828 6.4312048172443195 -15.923927805987487 138.34715639240943 4.6946223857691333e-07 -8.942910427298863e-08 -3.652581214120827 107.60540065094285 -48.093915045880074 177.87533353453892 5.194119947441491e-08 -2.3937583943722167e-06 20.771338455342722 6.361109362927032e-15 0.0 0.0 -95.20602373485788 -46.30928040146516 -172.65487023599482 -3.3358885147678504e-06 -1.1741438259573757e-06 -24.465769820055197 6.3611093629270335e-15 -2.758691436281349e-33 -4.969616689786745e-17 17.502256010009127 4.5816777494154834 -86.1981053155373 -3.9048244849686906 -16.363986031116198 45.34127347283367 0.0 0.0 -3.1805546814635168e-15 3.510748844931173 9.633117115269062 55.173567683733474 2.7837055600953677 -7.2744512003078405 -16.80571255934113 -8.94531004161614e-16 -6.207055731633036e-33 7.951386703658791e-16
-0.3297680914402008 0.31216341257095337 3.459134101867676 6.401339168024856 -15.92174207810747 138.40549311813757 1.2315034203631612e-06 -2.459867582341127e-07 -4.2288374976142205 107.33002748805073 -49.87529657059299 177.7087607820314 5.407068417083834e-07 3.155448120139474e-06 20.40288396004331 3.180554681463516e-15 -1.7655625192200634e-31 -6.361109362927032e-15 -94.2368493864047 -48.1257224414839 -172.9277750770721 -2.880050723478228e-06 1.4074246729020714e-06 -23.517210797825104 6.3611093629270335e-15 2.2069531490250793e-32 3.975693351829396e-16 16.722889007678216 4.996798869998788 -83.17739607234307 -4.287226989017342 -16.270002274995967 43.56752142939532 0.0 0.0 -8.746525374024672e-15 3.367893880229173 9.753642995730061 55.96793789480836 2.2823266717109028 -7.478760011777459 -17.683773364217117 -3.975693351829396e-16 0.0 0.0
-0.3292146921157837 0.3118422031402588 3.459105968475342 6.276294164885693 -16.05947838618737 138.37207844015674 1.8810489932030144e-07 -1.8268653256722013e-06 -4.162796360153359 107.72247959150964 -48.102292927298905 177.97786621355277 2.1588854456591566e-06 -4.598495154214176e-06 20.50221667205375 -3.1805546814635164e-15 -3.1805546814635164e-15 -8.827812596100317e-32 -94.18490710534861 -49.78464743865071 -173.38074919598614 5.447340880408059e-06 6.789371035620648e-07 -23.982172970351833 -1.3793457181406746e-33 3.975693351829397e-16 3.975693351829397e-16 16.855368339560634 4.780938286405053 -83.66169086150119 -2.8168408880273033 -14.589949181454612 43.61562766224104 -3.1805546814635164e-15 -1.1586504032381667e-31 4.174478019420865e-15 3.454260075387446 9.477869421373205 55.564289760257516 1.6536581718074708 -7.338638254850112 -17.99958422894385 9.93923337957349e-17 9.483001812217137e-34 1.0933156717530838e-15
-0.32883480191230774 0.3115367889404297 3.459089994430542 6.180928906742492 -16.188738251766043 138.16198678490042 -1.333867917354624e-06 -6.443800193406441e-07 -4.163343551042626 108.20410226423658 -49.056742330216316 178.32013553262703 -3.7557444475376757e-07 2.2814315799717215e-07 19.984557695892615 3.1805546814635168e-15 8.827812596100317e-32 3.1805546814635168e-15 -94.5607784862052 -49.01312680732169 -173.69368865272847 -3.3685632151812857e-06 1.9331407007088213e-06 -22.988171276971567 -6.3611093629270335e-15 3.975693351829396e-16 2.2069531490250793e-32 17.063487252014983 4.538022747603853 -84.27870911072709 -0.2821083838566148 -13.682988473725537 47.86900611068222 0.0 0.0 7.55381736847585e-15 3.4374745110188547 9.275156707289772 55.48649005110724 1.3999470297694263 -7.526019046308692 -18.793861766093766 1.987846675914698e-16 5.17254644302753e-34 2.981770013872047e-16
-0.3285894989967346 0.31167200207710266 3.458993911743164 6.162810716696002 -16.207285814368515 138.21118379493612 2.451951452460562e-07 3.982009593031614e-07 -3.746603056299277 108.13214849846025 -50.866575370093415 178.4398875211819 -2.178877445663126e-06 5.041598350001144e-07 20.21128578744407 -9.54166404439055e-15 6.3611093629270335e-15 5.29668755766019e-31 -93.94025595291659 -49.90733456821059 -172.75919596984704 4.217776129806447e-06 -2.501112742216451e-06 -23.173205517464233 0.0 0.0 9.939233379573492e-17 17.083932260371817 4.509064971949215 -84.35433792087632 -1.201149639664619 -13.89630479403587 46.22109133667412 -3.1805546814635176e-15 -6.069121159818968e-32 2.186631343506168e-15 3.4614240951914996 9.260477102379426 55.43239717250303 -7.74314106907153 -12.17907936393263 -45.03920268276502 0.0 0.0 2.1369351766083005e-15
